solid OpenSCAD_Model
  facet normal 0.965926 0.258819 0
    outer loop
      vertex 75 0 5
      vertex 64.9519 37.5 0
      vertex 64.9519 37.5 5
    endloop
  endfacet
  facet normal 0.965926 0.258819 0
    outer loop
      vertex 64.9519 37.5 0
      vertex 75 0 5
      vertex 75 0 0
    endloop
  endfacet
  facet normal -0.965926 0.258819 0
    outer loop
      vertex -75 0 0
      vertex -64.9519 37.5 5
      vertex -64.9519 37.5 0
    endloop
  endfacet
  facet normal -0.965926 0.258819 0
    outer loop
      vertex -64.9519 37.5 5
      vertex -75 0 0
      vertex -75 0 5
    endloop
  endfacet
  facet normal 0.258819 0.965926 -0
    outer loop
      vertex 37.5 64.9519 0
      vertex 0 75 5
      vertex 37.5 64.9519 5
    endloop
  endfacet
  facet normal 0.258819 0.965926 0
    outer loop
      vertex 0 75 5
      vertex 37.5 64.9519 0
      vertex 0 75 0
    endloop
  endfacet
  facet normal 0.707107 0.707107 0
    outer loop
      vertex 64.9519 37.5 5
      vertex 37.5 64.9519 0
      vertex 37.5 64.9519 5
    endloop
  endfacet
  facet normal 0.707107 0.707107 0
    outer loop
      vertex 37.5 64.9519 0
      vertex 64.9519 37.5 5
      vertex 64.9519 37.5 0
    endloop
  endfacet
  facet normal -0.258819 0.965926 0
    outer loop
      vertex 0 75 0
      vertex -37.5 64.9519 5
      vertex 0 75 5
    endloop
  endfacet
  facet normal -0.258819 0.965926 0
    outer loop
      vertex -37.5 64.9519 5
      vertex 0 75 0
      vertex -37.5 64.9519 0
    endloop
  endfacet
  facet normal -0.965926 -0.258819 0
    outer loop
      vertex -64.9519 -37.5 0
      vertex -75 0 5
      vertex -75 0 0
    endloop
  endfacet
  facet normal -0.965926 -0.258819 0
    outer loop
      vertex -75 0 5
      vertex -64.9519 -37.5 0
      vertex -64.9519 -37.5 5
    endloop
  endfacet
  facet normal 0.965926 -0.258819 0
    outer loop
      vertex 64.9519 -37.5 5
      vertex 75 0 0
      vertex 75 0 5
    endloop
  endfacet
  facet normal 0.965926 -0.258819 0
    outer loop
      vertex 75 0 0
      vertex 64.9519 -37.5 5
      vertex 64.9519 -37.5 0
    endloop
  endfacet
  facet normal 0.258819 -0.965926 0
    outer loop
      vertex 0 -75 0
      vertex 37.5 -64.9519 5
      vertex 0 -75 5
    endloop
  endfacet
  facet normal 0.258819 -0.965926 0
    outer loop
      vertex 37.5 -64.9519 5
      vertex 0 -75 0
      vertex 37.5 -64.9519 0
    endloop
  endfacet
  facet normal 0.707107 -0.707107 0
    outer loop
      vertex 37.5 -64.9519 5
      vertex 64.9519 -37.5 0
      vertex 64.9519 -37.5 5
    endloop
  endfacet
  facet normal 0.707107 -0.707107 0
    outer loop
      vertex 64.9519 -37.5 0
      vertex 37.5 -64.9519 5
      vertex 37.5 -64.9519 0
    endloop
  endfacet
  facet normal -0.258819 -0.965926 0
    outer loop
      vertex -37.5 -64.9519 0
      vertex 0 -75 5
      vertex -37.5 -64.9519 5
    endloop
  endfacet
  facet normal -0.258819 -0.965926 -0
    outer loop
      vertex 0 -75 5
      vertex -37.5 -64.9519 0
      vertex 0 -75 0
    endloop
  endfacet
  facet normal 0 0 -1
    outer loop
      vertex 64.9519 -37.5 0
      vertex 64.9519 37.5 0
      vertex 75 0 0
    endloop
  endfacet
  facet normal 0 0 -1
    outer loop
      vertex 37.5 -64.9519 0
      vertex 64.9519 37.5 0
      vertex 64.9519 -37.5 0
    endloop
  endfacet
  facet normal 0 0 -1
    outer loop
      vertex 37.5 -64.9519 0
      vertex 37.5 64.9519 0
      vertex 64.9519 37.5 0
    endloop
  endfacet
  facet normal 0 0 -1
    outer loop
      vertex 0 -75 0
      vertex 37.5 64.9519 0
      vertex 37.5 -64.9519 0
    endloop
  endfacet
  facet normal 0 0 -1
    outer loop
      vertex 0 -75 0
      vertex 0 75 0
      vertex 37.5 64.9519 0
    endloop
  endfacet
  facet normal 0 0 -1
    outer loop
      vertex -37.5 -64.9519 0
      vertex 0 75 0
      vertex 0 -75 0
    endloop
  endfacet
  facet normal 0 0 -1
    outer loop
      vertex -37.5 -64.9519 0
      vertex -37.5 64.9519 0
      vertex 0 75 0
    endloop
  endfacet
  facet normal 0 0 -1
    outer loop
      vertex -64.9519 -37.5 0
      vertex -37.5 64.9519 0
      vertex -37.5 -64.9519 0
    endloop
  endfacet
  facet normal 0 0 -1
    outer loop
      vertex -64.9519 -37.5 0
      vertex -64.9519 37.5 0
      vertex -37.5 64.9519 0
    endloop
  endfacet
  facet normal 0 -0 -1
    outer loop
      vertex -64.9519 37.5 0
      vertex -64.9519 -37.5 0
      vertex -75 0 0
    endloop
  endfacet
  facet normal -0.707107 -0.707107 0
    outer loop
      vertex -37.5 -64.9519 0
      vertex -64.9519 -37.5 5
      vertex -64.9519 -37.5 0
    endloop
  endfacet
  facet normal -0.707107 -0.707107 0
    outer loop
      vertex -64.9519 -37.5 5
      vertex -37.5 -64.9519 0
      vertex -37.5 -64.9519 5
    endloop
  endfacet
  facet normal -0 0 1
    outer loop
      vertex 13.5 13.5 5
      vertex 75 0 5
      vertex 64.9519 37.5 5
    endloop
  endfacet
  facet normal 0 0 1
    outer loop
      vertex 13.5 13.5 5
      vertex 64.9519 37.5 5
      vertex 37.5 64.9519 5
    endloop
  endfacet
  facet normal 0 0 1
    outer loop
      vertex 13.5 -13.5 5
      vertex 75 0 5
      vertex 13.5 13.5 5
    endloop
  endfacet
  facet normal 0 0 1
    outer loop
      vertex 75 0 5
      vertex 13.5 -13.5 5
      vertex 64.9519 -37.5 5
    endloop
  endfacet
  facet normal 0 0 1
    outer loop
      vertex 0 75 5
      vertex 13.5 13.5 5
      vertex 37.5 64.9519 5
    endloop
  endfacet
  facet normal 0 0 1
    outer loop
      vertex 0 75 5
      vertex -13.5 13.5 5
      vertex 13.5 13.5 5
    endloop
  endfacet
  facet normal -0 0 1
    outer loop
      vertex -64.9519 37.5 5
      vertex -13.5 13.5 5
      vertex -37.5 64.9519 5
    endloop
  endfacet
  facet normal -0 0 1
    outer loop
      vertex -37.5 64.9519 5
      vertex -13.5 13.5 5
      vertex 0 75 5
    endloop
  endfacet
  facet normal 0 0 1
    outer loop
      vertex 64.9519 -37.5 5
      vertex 13.5 -13.5 5
      vertex 37.5 -64.9519 5
    endloop
  endfacet
  facet normal 0 0 1
    outer loop
      vertex 13.5 -13.5 5
      vertex 0 -75 5
      vertex 37.5 -64.9519 5
    endloop
  endfacet
  facet normal -0 0 1
    outer loop
      vertex -13.5 -13.5 5
      vertex 0 -75 5
      vertex 13.5 -13.5 5
    endloop
  endfacet
  facet normal 0 0 1
    outer loop
      vertex -75 0 5
      vertex -13.5 13.5 5
      vertex -64.9519 37.5 5
    endloop
  endfacet
  facet normal 0 0 1
    outer loop
      vertex -13.5 -13.5 5
      vertex -37.5 -64.9519 5
      vertex 0 -75 5
    endloop
  endfacet
  facet normal 0 0 1
    outer loop
      vertex -13.5 13.5 5
      vertex -75 0 5
      vertex -13.5 -13.5 5
    endloop
  endfacet
  facet normal 0 0 1
    outer loop
      vertex -13.5 -13.5 5
      vertex -64.9519 -37.5 5
      vertex -37.5 -64.9519 5
    endloop
  endfacet
  facet normal 0 0 1
    outer loop
      vertex -13.5 -13.5 5
      vertex -75 0 5
      vertex -64.9519 -37.5 5
    endloop
  endfacet
  facet normal -0.707107 0.707107 0
    outer loop
      vertex -64.9519 37.5 0
      vertex -37.5 64.9519 5
      vertex -37.5 64.9519 0
    endloop
  endfacet
  facet normal -0.707107 0.707107 0
    outer loop
      vertex -37.5 64.9519 5
      vertex -64.9519 37.5 0
      vertex -64.9519 37.5 5
    endloop
  endfacet
  facet normal -1 0 0
    outer loop
      vertex -13.5 -13.5 5
      vertex -13.5 13.5 100
      vertex -13.5 13.5 5
    endloop
  endfacet
  facet normal -1 -0 0
    outer loop
      vertex -13.5 13.5 100
      vertex -13.5 -13.5 5
      vertex -13.5 -13.5 100
    endloop
  endfacet
  facet normal 0 0 1
    outer loop
      vertex 13.5 13.5 100
      vertex 10.5 10.5 100
      vertex 13.5 -13.5 100
    endloop
  endfacet
  facet normal 0 0 1
    outer loop
      vertex 13.5 13.5 100
      vertex -10.5 10.5 100
      vertex 10.5 10.5 100
    endloop
  endfacet
  facet normal 0 0 1
    outer loop
      vertex -10.5 10.5 100
      vertex -13.5 13.5 100
      vertex -10.5 -10.5 100
    endloop
  endfacet
  facet normal -0 0 1
    outer loop
      vertex -13.5 13.5 100
      vertex -10.5 10.5 100
      vertex 13.5 13.5 100
    endloop
  endfacet
  facet normal -0 0 1
    outer loop
      vertex 10.5 -10.5 100
      vertex 13.5 -13.5 100
      vertex 10.5 10.5 100
    endloop
  endfacet
  facet normal -0 0 1
    outer loop
      vertex -10.5 -10.5 100
      vertex 13.5 -13.5 100
      vertex 10.5 -10.5 100
    endloop
  endfacet
  facet normal 0 0 1
    outer loop
      vertex -10.5 -10.5 100
      vertex -13.5 -13.5 100
      vertex 13.5 -13.5 100
    endloop
  endfacet
  facet normal 0 0 1
    outer loop
      vertex -13.5 -13.5 100
      vertex -10.5 -10.5 100
      vertex -13.5 13.5 100
    endloop
  endfacet
  facet normal 1 -0 0
    outer loop
      vertex 13.5 -13.5 100
      vertex 13.5 13.5 5
      vertex 13.5 13.5 100
    endloop
  endfacet
  facet normal 1 0 0
    outer loop
      vertex 13.5 13.5 5
      vertex 13.5 -13.5 100
      vertex 13.5 -13.5 5
    endloop
  endfacet
  facet normal 0 1 -0
    outer loop
      vertex 13.5 13.5 5
      vertex -13.5 13.5 100
      vertex 13.5 13.5 100
    endloop
  endfacet
  facet normal 0 1 0
    outer loop
      vertex -13.5 13.5 100
      vertex 13.5 13.5 5
      vertex -13.5 13.5 5
    endloop
  endfacet
  facet normal 0 -1 0
    outer loop
      vertex -13.5 -13.5 5
      vertex 13.5 -13.5 100
      vertex -13.5 -13.5 100
    endloop
  endfacet
  facet normal 0 -1 -0
    outer loop
      vertex 13.5 -13.5 100
      vertex -13.5 -13.5 5
      vertex 13.5 -13.5 5
    endloop
  endfacet
  facet normal 1 -0 0
    outer loop
      vertex -10.5 -10.5 100
      vertex -10.5 10.5 6
      vertex -10.5 10.5 100
    endloop
  endfacet
  facet normal 1 0 0
    outer loop
      vertex -10.5 10.5 6
      vertex -10.5 -10.5 100
      vertex -10.5 -10.5 6
    endloop
  endfacet
  facet normal -1 0 0
    outer loop
      vertex 10.5 -10.5 6
      vertex 10.5 10.5 100
      vertex 10.5 10.5 6
    endloop
  endfacet
  facet normal -1 -0 0
    outer loop
      vertex 10.5 10.5 100
      vertex 10.5 -10.5 6
      vertex 10.5 -10.5 100
    endloop
  endfacet
  facet normal -0 0 1
    outer loop
      vertex -10.5 10.5 6
      vertex 10.5 -10.5 6
      vertex 10.5 10.5 6
    endloop
  endfacet
  facet normal 0 0 1
    outer loop
      vertex 10.5 -10.5 6
      vertex -10.5 10.5 6
      vertex -10.5 -10.5 6
    endloop
  endfacet
  facet normal 0 1 -0
    outer loop
      vertex 10.5 -10.5 6
      vertex -10.5 -10.5 100
      vertex 10.5 -10.5 100
    endloop
  endfacet
  facet normal 0 1 0
    outer loop
      vertex -10.5 -10.5 100
      vertex 10.5 -10.5 6
      vertex -10.5 -10.5 6
    endloop
  endfacet
  facet normal 0 -1 0
    outer loop
      vertex -10.5 10.5 6
      vertex 10.5 10.5 100
      vertex -10.5 10.5 100
    endloop
  endfacet
  facet normal 0 -1 -0
    outer loop
      vertex 10.5 10.5 100
      vertex -10.5 10.5 6
      vertex 10.5 10.5 6
    endloop
  endfacet
endsolid OpenSCAD_Model
