solid OpenSCAD_Model
  facet normal -1 0 0
    outer loop
      vertex -50 12.5 -12.5
      vertex -50 10.25 -10.25
      vertex -50 12.5 12.5
    endloop
  endfacet
  facet normal -1 0 0
    outer loop
      vertex -50 12.5 -12.5
      vertex -50 -10.25 -10.25
      vertex -50 10.25 -10.25
    endloop
  endfacet
  facet normal -1 -0 0
    outer loop
      vertex -50 -10.25 -10.25
      vertex -50 -12.5 -12.5
      vertex -50 -10.25 10.25
    endloop
  endfacet
  facet normal -1 0 0
    outer loop
      vertex -50 -12.5 -12.5
      vertex -50 -10.25 -10.25
      vertex -50 12.5 -12.5
    endloop
  endfacet
  facet normal -1 0 0
    outer loop
      vertex -50 10.25 10.25
      vertex -50 12.5 12.5
      vertex -50 10.25 -10.25
    endloop
  endfacet
  facet normal -1 0 0
    outer loop
      vertex -50 -10.25 10.25
      vertex -50 12.5 12.5
      vertex -50 10.25 10.25
    endloop
  endfacet
  facet normal -1 0 0
    outer loop
      vertex -50 -10.25 10.25
      vertex -50 -12.5 12.5
      vertex -50 12.5 12.5
    endloop
  endfacet
  facet normal -1 0 0
    outer loop
      vertex -50 -12.5 12.5
      vertex -50 -10.25 10.25
      vertex -50 -12.5 -12.5
    endloop
  endfacet
  facet normal -0 0 1
    outer loop
      vertex -12.5 -17.5 12.5
      vertex 12.5 -50 12.5
      vertex 12.5 -17.5 12.5
    endloop
  endfacet
  facet normal 0 0 1
    outer loop
      vertex 12.5 -50 12.5
      vertex -12.5 -17.5 12.5
      vertex -12.5 -50 12.5
    endloop
  endfacet
  facet normal -0 0 1
    outer loop
      vertex -12.5 50 12.5
      vertex 12.5 17.5 12.5
      vertex 12.5 50 12.5
    endloop
  endfacet
  facet normal 0 0 1
    outer loop
      vertex 12.5 17.5 12.5
      vertex -12.5 50 12.5
      vertex -12.5 17.5 12.5
    endloop
  endfacet
  facet normal -0 0 1
    outer loop
      vertex -50 12.5 12.5
      vertex -17.5 -12.5 12.5
      vertex -17.5 12.5 12.5
    endloop
  endfacet
  facet normal 0 0 1
    outer loop
      vertex -17.5 -12.5 12.5
      vertex -50 12.5 12.5
      vertex -50 -12.5 12.5
    endloop
  endfacet
  facet normal -0 0 1
    outer loop
      vertex 17.5 12.5 12.5
      vertex 50 -12.5 12.5
      vertex 50 12.5 12.5
    endloop
  endfacet
  facet normal 0 0 1
    outer loop
      vertex 50 -12.5 12.5
      vertex 17.5 12.5 12.5
      vertex 17.5 -12.5 12.5
    endloop
  endfacet
  facet normal 1 0 0
    outer loop
      vertex 50 12.5 12.5
      vertex 50 10.25 10.25
      vertex 50 12.5 -12.5
    endloop
  endfacet
  facet normal 1 0 0
    outer loop
      vertex 50 12.5 12.5
      vertex 50 -10.25 10.25
      vertex 50 10.25 10.25
    endloop
  endfacet
  facet normal 1 0 0
    outer loop
      vertex 50 -10.25 10.25
      vertex 50 -12.5 12.5
      vertex 50 -10.25 -10.25
    endloop
  endfacet
  facet normal 1 -0 0
    outer loop
      vertex 50 -12.5 12.5
      vertex 50 -10.25 10.25
      vertex 50 12.5 12.5
    endloop
  endfacet
  facet normal 1 -0 0
    outer loop
      vertex 50 10.25 -10.25
      vertex 50 12.5 -12.5
      vertex 50 10.25 10.25
    endloop
  endfacet
  facet normal 1 -0 0
    outer loop
      vertex 50 -10.25 -10.25
      vertex 50 12.5 -12.5
      vertex 50 10.25 -10.25
    endloop
  endfacet
  facet normal 1 0 0
    outer loop
      vertex 50 -10.25 -10.25
      vertex 50 -12.5 -12.5
      vertex 50 12.5 -12.5
    endloop
  endfacet
  facet normal 1 0 0
    outer loop
      vertex 50 -12.5 -12.5
      vertex 50 -10.25 -10.25
      vertex 50 -12.5 12.5
    endloop
  endfacet
  facet normal 0 1 -0
    outer loop
      vertex 50 12.5 -12.5
      vertex 17.5 12.5 12.5
      vertex 50 12.5 12.5
    endloop
  endfacet
  facet normal 0 1 0
    outer loop
      vertex 17.5 12.5 12.5
      vertex 50 12.5 -12.5
      vertex 17.5 12.5 -12.5
    endloop
  endfacet
  facet normal 0 1 -0
    outer loop
      vertex -17.5 12.5 -12.5
      vertex -50 12.5 12.5
      vertex -17.5 12.5 12.5
    endloop
  endfacet
  facet normal 0 1 0
    outer loop
      vertex -50 12.5 12.5
      vertex -17.5 12.5 -12.5
      vertex -50 12.5 -12.5
    endloop
  endfacet
  facet normal 0 0 -1
    outer loop
      vertex -50 -12.5 -12.5
      vertex -17.5 12.5 -12.5
      vertex -17.5 -12.5 -12.5
    endloop
  endfacet
  facet normal -0 0 -1
    outer loop
      vertex -17.5 12.5 -12.5
      vertex -50 -12.5 -12.5
      vertex -50 12.5 -12.5
    endloop
  endfacet
  facet normal 0 0 -1
    outer loop
      vertex -17.5 -12.5 -12.5
      vertex -12.5 -17.5 -12.5
      vertex -17.5 -17.5 -12.5
    endloop
  endfacet
  facet normal 0 0 -1
    outer loop
      vertex -12.5 -17.5 -12.5
      vertex -17.5 -12.5 -12.5
      vertex -12.5 17.5 -12.5
    endloop
  endfacet
  facet normal 0 0 -1
    outer loop
      vertex -17.5 12.5 -12.5
      vertex -12.5 17.5 -12.5
      vertex -17.5 -12.5 -12.5
    endloop
  endfacet
  facet normal -0 0 -1
    outer loop
      vertex -12.5 17.5 -12.5
      vertex -17.5 12.5 -12.5
      vertex -17.5 17.5 -12.5
    endloop
  endfacet
  facet normal 0 0 -1
    outer loop
      vertex -12.5 -17.5 -12.5
      vertex 12.5 -17.5 -12.5
      vertex 12.5 -50 -12.5
    endloop
  endfacet
  facet normal 0 0 -1
    outer loop
      vertex 12.5 -17.5 -12.5
      vertex -12.5 -17.5 -12.5
      vertex 12.5 17.5 -12.5
    endloop
  endfacet
  facet normal 0 0 -1
    outer loop
      vertex -12.5 -17.5 -12.5
      vertex 12.5 -50 -12.5
      vertex -12.5 -50 -12.5
    endloop
  endfacet
  facet normal 0 0 -1
    outer loop
      vertex -12.5 17.5 -12.5
      vertex 12.5 17.5 -12.5
      vertex -12.5 -17.5 -12.5
    endloop
  endfacet
  facet normal 0 0 -1
    outer loop
      vertex 12.5 17.5 -12.5
      vertex -12.5 17.5 -12.5
      vertex 12.5 50 -12.5
    endloop
  endfacet
  facet normal -0 0 -1
    outer loop
      vertex 12.5 50 -12.5
      vertex -12.5 17.5 -12.5
      vertex -12.5 50 -12.5
    endloop
  endfacet
  facet normal 0 0 -1
    outer loop
      vertex 12.5 -17.5 -12.5
      vertex 17.5 -12.5 -12.5
      vertex 17.5 -17.5 -12.5
    endloop
  endfacet
  facet normal -0 0 -1
    outer loop
      vertex 17.5 -12.5 -12.5
      vertex 12.5 -17.5 -12.5
      vertex 17.5 12.5 -12.5
    endloop
  endfacet
  facet normal 0 0 -1
    outer loop
      vertex 12.5 17.5 -12.5
      vertex 17.5 12.5 -12.5
      vertex 12.5 -17.5 -12.5
    endloop
  endfacet
  facet normal 0 0 -1
    outer loop
      vertex 17.5 12.5 -12.5
      vertex 12.5 17.5 -12.5
      vertex 17.5 17.5 -12.5
    endloop
  endfacet
  facet normal 0 0 -1
    outer loop
      vertex 17.5 -12.5 -12.5
      vertex 50 12.5 -12.5
      vertex 50 -12.5 -12.5
    endloop
  endfacet
  facet normal -0 0 -1
    outer loop
      vertex 50 12.5 -12.5
      vertex 17.5 -12.5 -12.5
      vertex 17.5 12.5 -12.5
    endloop
  endfacet
  facet normal 0 -1 0
    outer loop
      vertex -50 -12.5 -12.5
      vertex -17.5 -12.5 12.5
      vertex -50 -12.5 12.5
    endloop
  endfacet
  facet normal 0 -1 -0
    outer loop
      vertex -17.5 -12.5 12.5
      vertex -50 -12.5 -12.5
      vertex -17.5 -12.5 -12.5
    endloop
  endfacet
  facet normal 0 -1 0
    outer loop
      vertex 17.5 -12.5 -12.5
      vertex 50 -12.5 12.5
      vertex 17.5 -12.5 12.5
    endloop
  endfacet
  facet normal 0 -1 -0
    outer loop
      vertex 50 -12.5 12.5
      vertex 17.5 -12.5 -12.5
      vertex 50 -12.5 -12.5
    endloop
  endfacet
  facet normal -1 0 0
    outer loop
      vertex -12.5 -50 -12.5
      vertex -12.5 -17.5 12.5
      vertex -12.5 -17.5 -12.5
    endloop
  endfacet
  facet normal -1 -0 0
    outer loop
      vertex -12.5 -17.5 12.5
      vertex -12.5 -50 -12.5
      vertex -12.5 -50 12.5
    endloop
  endfacet
  facet normal -1 0 0
    outer loop
      vertex -12.5 17.5 -12.5
      vertex -12.5 50 12.5
      vertex -12.5 50 -12.5
    endloop
  endfacet
  facet normal -1 -0 0
    outer loop
      vertex -12.5 50 12.5
      vertex -12.5 17.5 -12.5
      vertex -12.5 17.5 12.5
    endloop
  endfacet
  facet normal 1 -0 0
    outer loop
      vertex 12.5 -50 12.5
      vertex 12.5 -17.5 -12.5
      vertex 12.5 -17.5 12.5
    endloop
  endfacet
  facet normal 1 0 0
    outer loop
      vertex 12.5 -17.5 -12.5
      vertex 12.5 -50 12.5
      vertex 12.5 -50 -12.5
    endloop
  endfacet
  facet normal 1 -0 0
    outer loop
      vertex 12.5 17.5 12.5
      vertex 12.5 50 -12.5
      vertex 12.5 50 12.5
    endloop
  endfacet
  facet normal 1 0 0
    outer loop
      vertex 12.5 50 -12.5
      vertex 12.5 17.5 12.5
      vertex 12.5 17.5 -12.5
    endloop
  endfacet
  facet normal 0 -1 0
    outer loop
      vertex -12.5 -50 12.5
      vertex -10.25 -50 10.25
      vertex 12.5 -50 12.5
    endloop
  endfacet
  facet normal 0 -1 0
    outer loop
      vertex -12.5 -50 12.5
      vertex -10.25 -50 -10.25
      vertex -10.25 -50 10.25
    endloop
  endfacet
  facet normal 0 -1 -0
    outer loop
      vertex -10.25 -50 -10.25
      vertex -12.5 -50 -12.5
      vertex 10.25 -50 -10.25
    endloop
  endfacet
  facet normal 0 -1 0
    outer loop
      vertex -12.5 -50 -12.5
      vertex -10.25 -50 -10.25
      vertex -12.5 -50 12.5
    endloop
  endfacet
  facet normal 0 -1 0
    outer loop
      vertex 10.25 -50 10.25
      vertex 12.5 -50 12.5
      vertex -10.25 -50 10.25
    endloop
  endfacet
  facet normal 0 -1 0
    outer loop
      vertex 10.25 -50 -10.25
      vertex 12.5 -50 12.5
      vertex 10.25 -50 10.25
    endloop
  endfacet
  facet normal 0 -1 0
    outer loop
      vertex 10.25 -50 -10.25
      vertex 12.5 -50 -12.5
      vertex 12.5 -50 12.5
    endloop
  endfacet
  facet normal 0 -1 0
    outer loop
      vertex 12.5 -50 -12.5
      vertex 10.25 -50 -10.25
      vertex -12.5 -50 -12.5
    endloop
  endfacet
  facet normal 0 1 0
    outer loop
      vertex 12.5 50 12.5
      vertex 10.25 50 10.25
      vertex -12.5 50 12.5
    endloop
  endfacet
  facet normal 0 1 0
    outer loop
      vertex 12.5 50 12.5
      vertex 10.25 50 -10.25
      vertex 10.25 50 10.25
    endloop
  endfacet
  facet normal 0 1 0
    outer loop
      vertex 10.25 50 -10.25
      vertex 12.5 50 -12.5
      vertex -10.25 50 -10.25
    endloop
  endfacet
  facet normal 0 1 -0
    outer loop
      vertex 12.5 50 -12.5
      vertex 10.25 50 -10.25
      vertex 12.5 50 12.5
    endloop
  endfacet
  facet normal 0 1 -0
    outer loop
      vertex -10.25 50 10.25
      vertex -12.5 50 12.5
      vertex 10.25 50 10.25
    endloop
  endfacet
  facet normal 0 1 -0
    outer loop
      vertex -10.25 50 -10.25
      vertex -12.5 50 12.5
      vertex -10.25 50 10.25
    endloop
  endfacet
  facet normal 0 1 0
    outer loop
      vertex -10.25 50 -10.25
      vertex -12.5 50 -12.5
      vertex -12.5 50 12.5
    endloop
  endfacet
  facet normal 0 1 0
    outer loop
      vertex -12.5 50 -12.5
      vertex -10.25 50 -10.25
      vertex 12.5 50 -12.5
    endloop
  endfacet
  facet normal -1 0 0
    outer loop
      vertex -17.5 -12.5 -12.5
      vertex -17.5 -17.5 -12.5
      vertex -17.5 -12.5 12.5
    endloop
  endfacet
  facet normal -1 0 0
    outer loop
      vertex -17.5 12.5 12.5
      vertex -17.5 17.5 -12.5
      vertex -17.5 12.5 -12.5
    endloop
  endfacet
  facet normal -1 0 0
    outer loop
      vertex -17.5 17.5 -12.5
      vertex -17.5 12.5 12.5
      vertex -17.5 17.5 37.5
    endloop
  endfacet
  facet normal -1 0 0
    outer loop
      vertex -17.5 -12.5 12.5
      vertex -17.5 17.5 37.5
      vertex -17.5 12.5 12.5
    endloop
  endfacet
  facet normal -1 0 0
    outer loop
      vertex -17.5 -12.5 12.5
      vertex -17.5 -17.5 37.5
      vertex -17.5 17.5 37.5
    endloop
  endfacet
  facet normal -1 0 0
    outer loop
      vertex -17.5 -17.5 37.5
      vertex -17.5 -12.5 12.5
      vertex -17.5 -17.5 -12.5
    endloop
  endfacet
  facet normal 0 0 1
    outer loop
      vertex 17.5 17.5 37.5
      vertex 10.25 10.25 37.5
      vertex 17.5 -17.5 37.5
    endloop
  endfacet
  facet normal 0 0 1
    outer loop
      vertex 17.5 17.5 37.5
      vertex -10.25 10.25 37.5
      vertex 10.25 10.25 37.5
    endloop
  endfacet
  facet normal 0 0 1
    outer loop
      vertex -10.25 10.25 37.5
      vertex -17.5 17.5 37.5
      vertex -10.25 -10.25 37.5
    endloop
  endfacet
  facet normal -0 0 1
    outer loop
      vertex -17.5 17.5 37.5
      vertex -10.25 10.25 37.5
      vertex 17.5 17.5 37.5
    endloop
  endfacet
  facet normal -0 0 1
    outer loop
      vertex 10.25 -10.25 37.5
      vertex 17.5 -17.5 37.5
      vertex 10.25 10.25 37.5
    endloop
  endfacet
  facet normal -0 0 1
    outer loop
      vertex -10.25 -10.25 37.5
      vertex 17.5 -17.5 37.5
      vertex 10.25 -10.25 37.5
    endloop
  endfacet
  facet normal 0 0 1
    outer loop
      vertex -10.25 -10.25 37.5
      vertex -17.5 -17.5 37.5
      vertex 17.5 -17.5 37.5
    endloop
  endfacet
  facet normal 0 0 1
    outer loop
      vertex -17.5 -17.5 37.5
      vertex -10.25 -10.25 37.5
      vertex -17.5 17.5 37.5
    endloop
  endfacet
  facet normal 1 0 0
    outer loop
      vertex 17.5 17.5 37.5
      vertex 17.5 12.5 12.5
      vertex 17.5 17.5 -12.5
    endloop
  endfacet
  facet normal 1 0 0
    outer loop
      vertex 17.5 17.5 37.5
      vertex 17.5 -12.5 12.5
      vertex 17.5 12.5 12.5
    endloop
  endfacet
  facet normal 1 -0 0
    outer loop
      vertex 17.5 -17.5 37.5
      vertex 17.5 -12.5 12.5
      vertex 17.5 17.5 37.5
    endloop
  endfacet
  facet normal 1 0 0
    outer loop
      vertex 17.5 -17.5 -12.5
      vertex 17.5 -12.5 12.5
      vertex 17.5 -17.5 37.5
    endloop
  endfacet
  facet normal 1 0 0
    outer loop
      vertex 17.5 -12.5 12.5
      vertex 17.5 -17.5 -12.5
      vertex 17.5 -12.5 -12.5
    endloop
  endfacet
  facet normal 1 0 0
    outer loop
      vertex 17.5 17.5 -12.5
      vertex 17.5 12.5 12.5
      vertex 17.5 12.5 -12.5
    endloop
  endfacet
  facet normal 0 -1 0
    outer loop
      vertex -17.5 -17.5 37.5
      vertex -12.5 -17.5 12.5
      vertex 17.5 -17.5 37.5
    endloop
  endfacet
  facet normal 0 -1 0
    outer loop
      vertex -17.5 -17.5 -12.5
      vertex -12.5 -17.5 12.5
      vertex -17.5 -17.5 37.5
    endloop
  endfacet
  facet normal 0 -1 -0
    outer loop
      vertex -12.5 -17.5 12.5
      vertex -17.5 -17.5 -12.5
      vertex -12.5 -17.5 -12.5
    endloop
  endfacet
  facet normal 0 -1 0
    outer loop
      vertex 12.5 -17.5 12.5
      vertex 17.5 -17.5 37.5
      vertex -12.5 -17.5 12.5
    endloop
  endfacet
  facet normal 0 -1 0
    outer loop
      vertex 17.5 -17.5 -12.5
      vertex 12.5 -17.5 12.5
      vertex 12.5 -17.5 -12.5
    endloop
  endfacet
  facet normal 0 -1 0
    outer loop
      vertex 12.5 -17.5 12.5
      vertex 17.5 -17.5 -12.5
      vertex 17.5 -17.5 37.5
    endloop
  endfacet
  facet normal 0 1 0
    outer loop
      vertex 17.5 17.5 37.5
      vertex 12.5 17.5 12.5
      vertex -17.5 17.5 37.5
    endloop
  endfacet
  facet normal 0 1 -0
    outer loop
      vertex 17.5 17.5 -12.5
      vertex 12.5 17.5 12.5
      vertex 17.5 17.5 37.5
    endloop
  endfacet
  facet normal 0 1 0
    outer loop
      vertex 12.5 17.5 12.5
      vertex 17.5 17.5 -12.5
      vertex 12.5 17.5 -12.5
    endloop
  endfacet
  facet normal 0 1 -0
    outer loop
      vertex -12.5 17.5 12.5
      vertex -17.5 17.5 37.5
      vertex 12.5 17.5 12.5
    endloop
  endfacet
  facet normal 0 1 0
    outer loop
      vertex -17.5 17.5 -12.5
      vertex -12.5 17.5 12.5
      vertex -12.5 17.5 -12.5
    endloop
  endfacet
  facet normal 0 1 0
    outer loop
      vertex -12.5 17.5 12.5
      vertex -17.5 17.5 -12.5
      vertex -17.5 17.5 37.5
    endloop
  endfacet
  facet normal 1 -0 0
    outer loop
      vertex -10.25 -10.25 37.5
      vertex -10.25 10.25 10.25
      vertex -10.25 10.25 37.5
    endloop
  endfacet
  facet normal 1 0 0
    outer loop
      vertex -10.25 10.25 10.25
      vertex -10.25 -10.25 37.5
      vertex -10.25 -10.25 10.25
    endloop
  endfacet
  facet normal -1 0 0
    outer loop
      vertex 10.25 -10.25 10.25
      vertex 10.25 10.25 37.5
      vertex 10.25 10.25 10.25
    endloop
  endfacet
  facet normal -1 -0 0
    outer loop
      vertex 10.25 10.25 37.5
      vertex 10.25 -10.25 10.25
      vertex 10.25 -10.25 37.5
    endloop
  endfacet
  facet normal 0 1 -0
    outer loop
      vertex 10.25 -10.25 10.25
      vertex -10.25 -10.25 37.5
      vertex 10.25 -10.25 37.5
    endloop
  endfacet
  facet normal 0 1 0
    outer loop
      vertex -10.25 -10.25 37.5
      vertex 10.25 -10.25 10.25
      vertex -10.25 -10.25 10.25
    endloop
  endfacet
  facet normal 0 1 -0
    outer loop
      vertex -10.25 -10.25 -10.25
      vertex -50 -10.25 10.25
      vertex -10.25 -10.25 10.25
    endloop
  endfacet
  facet normal 0 1 0
    outer loop
      vertex -50 -10.25 10.25
      vertex -10.25 -10.25 -10.25
      vertex -50 -10.25 -10.25
    endloop
  endfacet
  facet normal 0 1 -0
    outer loop
      vertex 50 -10.25 -10.25
      vertex 10.25 -10.25 10.25
      vertex 50 -10.25 10.25
    endloop
  endfacet
  facet normal 0 1 0
    outer loop
      vertex 10.25 -10.25 10.25
      vertex 50 -10.25 -10.25
      vertex 10.25 -10.25 -10.25
    endloop
  endfacet
  facet normal 0 -1 0
    outer loop
      vertex -10.25 10.25 10.25
      vertex 10.25 10.25 37.5
      vertex -10.25 10.25 37.5
    endloop
  endfacet
  facet normal 0 -1 -0
    outer loop
      vertex 10.25 10.25 37.5
      vertex -10.25 10.25 10.25
      vertex 10.25 10.25 10.25
    endloop
  endfacet
  facet normal 0 -1 0
    outer loop
      vertex -50 10.25 -10.25
      vertex -10.25 10.25 10.25
      vertex -50 10.25 10.25
    endloop
  endfacet
  facet normal 0 -1 -0
    outer loop
      vertex -10.25 10.25 10.25
      vertex -50 10.25 -10.25
      vertex -10.25 10.25 -10.25
    endloop
  endfacet
  facet normal 0 -1 0
    outer loop
      vertex 10.25 10.25 -10.25
      vertex 50 10.25 10.25
      vertex 10.25 10.25 10.25
    endloop
  endfacet
  facet normal 0 -1 -0
    outer loop
      vertex 50 10.25 10.25
      vertex 10.25 10.25 -10.25
      vertex 50 10.25 -10.25
    endloop
  endfacet
  facet normal 0 0 -1
    outer loop
      vertex -50 -10.25 10.25
      vertex -10.25 10.25 10.25
      vertex -10.25 -10.25 10.25
    endloop
  endfacet
  facet normal -0 0 -1
    outer loop
      vertex -10.25 10.25 10.25
      vertex -50 -10.25 10.25
      vertex -50 10.25 10.25
    endloop
  endfacet
  facet normal 0 0 -1
    outer loop
      vertex 10.25 -10.25 10.25
      vertex 50 10.25 10.25
      vertex 50 -10.25 10.25
    endloop
  endfacet
  facet normal -0 0 -1
    outer loop
      vertex 50 10.25 10.25
      vertex 10.25 -10.25 10.25
      vertex 10.25 10.25 10.25
    endloop
  endfacet
  facet normal -0 0 1
    outer loop
      vertex -50 10.25 -10.25
      vertex -10.25 -10.25 -10.25
      vertex -10.25 10.25 -10.25
    endloop
  endfacet
  facet normal 0 0 1
    outer loop
      vertex -10.25 -10.25 -10.25
      vertex -50 10.25 -10.25
      vertex -50 -10.25 -10.25
    endloop
  endfacet
  facet normal 0 0 1
    outer loop
      vertex -10.25 10.25 -10.25
      vertex 10.25 10.25 -10.25
      vertex 10.25 50 -10.25
    endloop
  endfacet
  facet normal 0 0 1
    outer loop
      vertex 10.25 10.25 -10.25
      vertex -10.25 10.25 -10.25
      vertex 10.25 -10.25 -10.25
    endloop
  endfacet
  facet normal 0 0 1
    outer loop
      vertex -10.25 10.25 -10.25
      vertex 10.25 50 -10.25
      vertex -10.25 50 -10.25
    endloop
  endfacet
  facet normal 0 0 1
    outer loop
      vertex -10.25 -10.25 -10.25
      vertex 10.25 -10.25 -10.25
      vertex -10.25 10.25 -10.25
    endloop
  endfacet
  facet normal 0 0 1
    outer loop
      vertex 10.25 -10.25 -10.25
      vertex -10.25 -10.25 -10.25
      vertex 10.25 -50 -10.25
    endloop
  endfacet
  facet normal 0 0 1
    outer loop
      vertex 10.25 -50 -10.25
      vertex -10.25 -10.25 -10.25
      vertex -10.25 -50 -10.25
    endloop
  endfacet
  facet normal -0 0 1
    outer loop
      vertex 10.25 10.25 -10.25
      vertex 50 -10.25 -10.25
      vertex 50 10.25 -10.25
    endloop
  endfacet
  facet normal 0 0 1
    outer loop
      vertex 50 -10.25 -10.25
      vertex 10.25 10.25 -10.25
      vertex 10.25 -10.25 -10.25
    endloop
  endfacet
  facet normal 1 -0 0
    outer loop
      vertex -10.25 -50 10.25
      vertex -10.25 -10.25 -10.25
      vertex -10.25 -10.25 10.25
    endloop
  endfacet
  facet normal 1 0 0
    outer loop
      vertex -10.25 -10.25 -10.25
      vertex -10.25 -50 10.25
      vertex -10.25 -50 -10.25
    endloop
  endfacet
  facet normal 1 -0 0
    outer loop
      vertex -10.25 10.25 10.25
      vertex -10.25 50 -10.25
      vertex -10.25 50 10.25
    endloop
  endfacet
  facet normal 1 0 0
    outer loop
      vertex -10.25 50 -10.25
      vertex -10.25 10.25 10.25
      vertex -10.25 10.25 -10.25
    endloop
  endfacet
  facet normal 0 0 -1
    outer loop
      vertex -10.25 -50 10.25
      vertex 10.25 -10.25 10.25
      vertex 10.25 -50 10.25
    endloop
  endfacet
  facet normal -0 0 -1
    outer loop
      vertex 10.25 -10.25 10.25
      vertex -10.25 -50 10.25
      vertex -10.25 -10.25 10.25
    endloop
  endfacet
  facet normal 0 0 -1
    outer loop
      vertex -10.25 10.25 10.25
      vertex 10.25 50 10.25
      vertex 10.25 10.25 10.25
    endloop
  endfacet
  facet normal -0 0 -1
    outer loop
      vertex 10.25 50 10.25
      vertex -10.25 10.25 10.25
      vertex -10.25 50 10.25
    endloop
  endfacet
  facet normal -1 0 0
    outer loop
      vertex 10.25 -50 -10.25
      vertex 10.25 -10.25 10.25
      vertex 10.25 -10.25 -10.25
    endloop
  endfacet
  facet normal -1 -0 0
    outer loop
      vertex 10.25 -10.25 10.25
      vertex 10.25 -50 -10.25
      vertex 10.25 -50 10.25
    endloop
  endfacet
  facet normal -1 0 0
    outer loop
      vertex 10.25 10.25 -10.25
      vertex 10.25 50 10.25
      vertex 10.25 50 -10.25
    endloop
  endfacet
  facet normal -1 -0 0
    outer loop
      vertex 10.25 50 10.25
      vertex 10.25 10.25 -10.25
      vertex 10.25 10.25 10.25
    endloop
  endfacet
endsolid OpenSCAD_Model
