solid OpenSCAD_Model
  facet normal -1 0 0
    outer loop
      vertex 0 24.5 0
      vertex 0 22.5 2
      vertex 0 24.5 24.5
    endloop
  endfacet
  facet normal -1 0 0
    outer loop
      vertex 0 24.5 0
      vertex 0 2 2
      vertex 0 22.5 2
    endloop
  endfacet
  facet normal -1 -0 0
    outer loop
      vertex 0 2 2
      vertex 0 0 0
      vertex 0 2 22.5
    endloop
  endfacet
  facet normal -1 0 0
    outer loop
      vertex 0 0 0
      vertex 0 2 2
      vertex 0 24.5 0
    endloop
  endfacet
  facet normal -1 0 0
    outer loop
      vertex 0 22.5 22.5
      vertex 0 24.5 24.5
      vertex 0 22.5 2
    endloop
  endfacet
  facet normal -1 0 0
    outer loop
      vertex 0 2 22.5
      vertex 0 24.5 24.5
      vertex 0 22.5 22.5
    endloop
  endfacet
  facet normal -1 0 0
    outer loop
      vertex 0 2 22.5
      vertex 0 0 24.5
      vertex 0 24.5 24.5
    endloop
  endfacet
  facet normal -1 0 0
    outer loop
      vertex 0 0 24.5
      vertex 0 2 22.5
      vertex 0 0 0
    endloop
  endfacet
  facet normal -0 0 1
    outer loop
      vertex 0 24.5 24.5
      vertex 200 0 24.5
      vertex 200 24.5 24.5
    endloop
  endfacet
  facet normal 0 0 1
    outer loop
      vertex 200 0 24.5
      vertex 0 24.5 24.5
      vertex 0 0 24.5
    endloop
  endfacet
  facet normal 1 0 0
    outer loop
      vertex 200 24.5 24.5
      vertex 200 22.5 22.5
      vertex 200 24.5 0
    endloop
  endfacet
  facet normal 1 0 0
    outer loop
      vertex 200 24.5 24.5
      vertex 200 2 22.5
      vertex 200 22.5 22.5
    endloop
  endfacet
  facet normal 1 0 0
    outer loop
      vertex 200 2 22.5
      vertex 200 0 24.5
      vertex 200 2 2
    endloop
  endfacet
  facet normal 1 -0 0
    outer loop
      vertex 200 0 24.5
      vertex 200 2 22.5
      vertex 200 24.5 24.5
    endloop
  endfacet
  facet normal 1 -0 0
    outer loop
      vertex 200 22.5 2
      vertex 200 24.5 0
      vertex 200 22.5 22.5
    endloop
  endfacet
  facet normal 1 -0 0
    outer loop
      vertex 200 2 2
      vertex 200 24.5 0
      vertex 200 22.5 2
    endloop
  endfacet
  facet normal 1 0 0
    outer loop
      vertex 200 2 2
      vertex 200 0 0
      vertex 200 24.5 0
    endloop
  endfacet
  facet normal 1 0 0
    outer loop
      vertex 200 0 0
      vertex 200 2 2
      vertex 200 0 24.5
    endloop
  endfacet
  facet normal 0 0 -1
    outer loop
      vertex 0 0 0
      vertex 200 24.5 0
      vertex 200 0 0
    endloop
  endfacet
  facet normal -0 0 -1
    outer loop
      vertex 200 24.5 0
      vertex 0 0 0
      vertex 0 24.5 0
    endloop
  endfacet
  facet normal 0 -1 0
    outer loop
      vertex 0 0 0
      vertex 200 0 24.5
      vertex 0 0 24.5
    endloop
  endfacet
  facet normal 0 -1 -0
    outer loop
      vertex 200 0 24.5
      vertex 0 0 0
      vertex 200 0 0
    endloop
  endfacet
  facet normal 0 1 -0
    outer loop
      vertex 200 24.5 0
      vertex 0 24.5 24.5
      vertex 200 24.5 24.5
    endloop
  endfacet
  facet normal 0 1 0
    outer loop
      vertex 0 24.5 24.5
      vertex 200 24.5 0
      vertex 0 24.5 0
    endloop
  endfacet
  facet normal 1 -0 0
    outer loop
      vertex 101 2 22.5
      vertex 101 22.5 2
      vertex 101 22.5 22.5
    endloop
  endfacet
  facet normal 1 0 0
    outer loop
      vertex 101 22.5 2
      vertex 101 2 22.5
      vertex 101 2 2
    endloop
  endfacet
  facet normal 0 0 -1
    outer loop
      vertex 101 2 22.5
      vertex 200 22.5 22.5
      vertex 200 2 22.5
    endloop
  endfacet
  facet normal -0 0 -1
    outer loop
      vertex 200 22.5 22.5
      vertex 101 2 22.5
      vertex 101 22.5 22.5
    endloop
  endfacet
  facet normal 0 -1 0
    outer loop
      vertex 101 22.5 2
      vertex 200 22.5 22.5
      vertex 101 22.5 22.5
    endloop
  endfacet
  facet normal 0 -1 -0
    outer loop
      vertex 200 22.5 22.5
      vertex 101 22.5 2
      vertex 200 22.5 2
    endloop
  endfacet
  facet normal -0 0 1
    outer loop
      vertex 101 22.5 2
      vertex 200 2 2
      vertex 200 22.5 2
    endloop
  endfacet
  facet normal 0 0 1
    outer loop
      vertex 200 2 2
      vertex 101 22.5 2
      vertex 101 2 2
    endloop
  endfacet
  facet normal 0 1 -0
    outer loop
      vertex 200 2 2
      vertex 101 2 22.5
      vertex 200 2 22.5
    endloop
  endfacet
  facet normal 0 1 0
    outer loop
      vertex 101 2 22.5
      vertex 200 2 2
      vertex 101 2 2
    endloop
  endfacet
  facet normal 0 0 -1
    outer loop
      vertex 0 2 22.5
      vertex 99 22.5 22.5
      vertex 99 2 22.5
    endloop
  endfacet
  facet normal -0 0 -1
    outer loop
      vertex 99 22.5 22.5
      vertex 0 2 22.5
      vertex 0 22.5 22.5
    endloop
  endfacet
  facet normal -1 0 0
    outer loop
      vertex 99 2 2
      vertex 99 22.5 22.5
      vertex 99 22.5 2
    endloop
  endfacet
  facet normal -1 -0 0
    outer loop
      vertex 99 22.5 22.5
      vertex 99 2 2
      vertex 99 2 22.5
    endloop
  endfacet
  facet normal 0 -1 0
    outer loop
      vertex 0 22.5 2
      vertex 99 22.5 22.5
      vertex 0 22.5 22.5
    endloop
  endfacet
  facet normal 0 -1 -0
    outer loop
      vertex 99 22.5 22.5
      vertex 0 22.5 2
      vertex 99 22.5 2
    endloop
  endfacet
  facet normal -0 0 1
    outer loop
      vertex 0 22.5 2
      vertex 99 2 2
      vertex 99 22.5 2
    endloop
  endfacet
  facet normal 0 0 1
    outer loop
      vertex 99 2 2
      vertex 0 22.5 2
      vertex 0 2 2
    endloop
  endfacet
  facet normal 0 1 -0
    outer loop
      vertex 99 2 2
      vertex 0 2 22.5
      vertex 99 2 22.5
    endloop
  endfacet
  facet normal 0 1 0
    outer loop
      vertex 0 2 22.5
      vertex 99 2 2
      vertex 0 2 2
    endloop
  endfacet
endsolid OpenSCAD_Model
