solid OpenSCAD_Model
  facet normal -1 0 0
    outer loop
      vertex 0 0 0
      vertex 0 28 10
      vertex 0 28 0
    endloop
  endfacet
  facet normal -1 -0 0
    outer loop
      vertex 0 28 10
      vertex 0 0 0
      vertex 0 0 10
    endloop
  endfacet
  facet normal 0 0 1
    outer loop
      vertex 28 28 10
      vertex 24 24 10
      vertex 28 0 10
    endloop
  endfacet
  facet normal 0 0 1
    outer loop
      vertex 28 28 10
      vertex 4 24 10
      vertex 24 24 10
    endloop
  endfacet
  facet normal 0 0 1
    outer loop
      vertex 4 24 10
      vertex 0 28 10
      vertex 4 4 10
    endloop
  endfacet
  facet normal -0 0 1
    outer loop
      vertex 0 28 10
      vertex 4 24 10
      vertex 28 28 10
    endloop
  endfacet
  facet normal -0 0 1
    outer loop
      vertex 24 4 10
      vertex 28 0 10
      vertex 24 24 10
    endloop
  endfacet
  facet normal -0 0 1
    outer loop
      vertex 4 4 10
      vertex 28 0 10
      vertex 24 4 10
    endloop
  endfacet
  facet normal 0 0 1
    outer loop
      vertex 4 4 10
      vertex 0 0 10
      vertex 28 0 10
    endloop
  endfacet
  facet normal 0 0 1
    outer loop
      vertex 0 0 10
      vertex 4 4 10
      vertex 0 28 10
    endloop
  endfacet
  facet normal 1 -0 0
    outer loop
      vertex 28 0 10
      vertex 28 28 0
      vertex 28 28 10
    endloop
  endfacet
  facet normal 1 0 0
    outer loop
      vertex 28 28 0
      vertex 28 0 10
      vertex 28 0 0
    endloop
  endfacet
  facet normal 0 0 -1
    outer loop
      vertex 0 0 0
      vertex 28 28 0
      vertex 28 0 0
    endloop
  endfacet
  facet normal -0 0 -1
    outer loop
      vertex 28 28 0
      vertex 0 0 0
      vertex 0 28 0
    endloop
  endfacet
  facet normal 0 -1 0
    outer loop
      vertex 0 0 0
      vertex 28 0 10
      vertex 0 0 10
    endloop
  endfacet
  facet normal 0 -1 -0
    outer loop
      vertex 28 0 10
      vertex 0 0 0
      vertex 28 0 0
    endloop
  endfacet
  facet normal 0 1 -0
    outer loop
      vertex 28 28 0
      vertex 0 28 10
      vertex 28 28 10
    endloop
  endfacet
  facet normal 0 1 0
    outer loop
      vertex 0 28 10
      vertex 28 28 0
      vertex 0 28 0
    endloop
  endfacet
  facet normal 1 -0 0
    outer loop
      vertex 4 4 10
      vertex 4 24 4
      vertex 4 24 10
    endloop
  endfacet
  facet normal 1 0 0
    outer loop
      vertex 4 24 4
      vertex 4 4 10
      vertex 4 4 4
    endloop
  endfacet
  facet normal -1 0 0
    outer loop
      vertex 24 4 4
      vertex 24 24 10
      vertex 24 24 4
    endloop
  endfacet
  facet normal -1 -0 0
    outer loop
      vertex 24 24 10
      vertex 24 4 4
      vertex 24 4 10
    endloop
  endfacet
  facet normal 0 -1 0
    outer loop
      vertex 4 24 4
      vertex 24 24 10
      vertex 4 24 10
    endloop
  endfacet
  facet normal 0 -1 -0
    outer loop
      vertex 24 24 10
      vertex 4 24 4
      vertex 24 24 4
    endloop
  endfacet
  facet normal -0 0 1
    outer loop
      vertex 4 24 4
      vertex 24 4 4
      vertex 24 24 4
    endloop
  endfacet
  facet normal 0 0 1
    outer loop
      vertex 24 4 4
      vertex 4 24 4
      vertex 4 4 4
    endloop
  endfacet
  facet normal 0 1 -0
    outer loop
      vertex 24 4 4
      vertex 4 4 10
      vertex 24 4 10
    endloop
  endfacet
  facet normal 0 1 0
    outer loop
      vertex 4 4 10
      vertex 24 4 4
      vertex 4 4 4
    endloop
  endfacet
endsolid OpenSCAD_Model
