<?xml version="1.0" encoding="UTF-8" standalone="no"?>
<!-- Created with Inkscape (http://www.inkscape.org/) -->

<svg
   xmlns:dc="http://purl.org/dc/elements/1.1/"
   xmlns:cc="http://creativecommons.org/ns#"
   xmlns:rdf="http://www.w3.org/1999/02/22-rdf-syntax-ns#"
   xmlns:svg="http://www.w3.org/2000/svg"
   xmlns="http://www.w3.org/2000/svg"
   xmlns:sodipodi="http://sodipodi.sourceforge.net/DTD/sodipodi-0.dtd"
   xmlns:inkscape="http://www.inkscape.org/namespaces/inkscape"
   width="297mm"
   height="210mm"
   viewBox="0 0 297 210"
   version="1.1"
   id="svg972"
   inkscape:version="0.92.2 (5c3e80d, 2017-08-06)"
   sodipodi:docname="pixotosco_release.svg">
  <defs
     id="defs966" />
  <sodipodi:namedview
     id="base"
     pagecolor="#ffffff"
     bordercolor="#666666"
     borderopacity="1.0"
     inkscape:pageopacity="0.0"
     inkscape:pageshadow="2"
     inkscape:zoom="0.98994949"
     inkscape:cx="289.66162"
     inkscape:cy="178.12414"
     inkscape:document-units="mm"
     inkscape:current-layer="layer1"
     showgrid="false"
     inkscape:window-width="1840"
     inkscape:window-height="1051"
     inkscape:window-x="1911"
     inkscape:window-y="-9"
     inkscape:window-maximized="1" />
  <metadata
     id="metadata969">
    <rdf:RDF>
      <cc:Work
         rdf:about="">
        <dc:format>image/svg+xml</dc:format>
        <dc:type
           rdf:resource="http://purl.org/dc/dcmitype/StillImage" />
        <dc:title></dc:title>
      </cc:Work>
    </rdf:RDF>
  </metadata>
  <g
     inkscape:label="Layer 1"
     inkscape:groupmode="layer"
     id="layer1"
     transform="translate(0,-87)">
    <path
       style="color:#000000;font-style:normal;font-variant:normal;font-weight:normal;font-stretch:normal;font-size:medium;line-height:normal;font-family:sans-serif;font-variant-ligatures:normal;font-variant-position:normal;font-variant-caps:normal;font-variant-numeric:normal;font-variant-alternates:normal;font-feature-settings:normal;text-indent:0;text-align:start;text-decoration:none;text-decoration-line:none;text-decoration-style:solid;text-decoration-color:#000000;letter-spacing:normal;word-spacing:normal;text-transform:none;writing-mode:lr-tb;direction:ltr;text-orientation:mixed;dominant-baseline:auto;baseline-shift:baseline;text-anchor:start;white-space:normal;shape-padding:0;clip-rule:nonzero;display:inline;overflow:visible;visibility:visible;opacity:1;isolation:auto;mix-blend-mode:normal;color-interpolation:sRGB;color-interpolation-filters:linearRGB;solid-color:#000000;solid-opacity:1;vector-effect:none;fill:#525252;fill-opacity:1;fill-rule:nonzero;stroke:none;stroke-width:0.57778221;stroke-linecap:butt;stroke-linejoin:miter;stroke-miterlimit:4;stroke-dasharray:none;stroke-dashoffset:0;stroke-opacity:1;color-rendering:auto;image-rendering:auto;shape-rendering:auto;text-rendering:auto;enable-background:accumulate"
       d="m 176.93921,261.89178 -0.23397,0.16178 -3.31747,2.2985 3.09,3.45698 -2.66928,1.71546 -2.66548,-3.72027 -3.95589,2.04607 0.27904,0.27903 c 0.59974,0.59983 1.27064,0.95989 1.85499,1.40332 0.51628,0.39176 0.93618,0.92848 1.28224,1.67637 -6.24218,3.31583 -11.61238,5.17329 -19.18385,7.11319 l -0.57653,-4.39885 -6.7815,1.73989 0.37946,4.36194 c -0.0277,-0.002 -0.10863,0.002 -0.19651,0.006 -1.05068,-0.18963 -1.45694,-0.38358 -1.74641,-0.75513 -0.29046,-0.37282 -0.48732,-1.02236 -0.94188,-2.09493 l -0.006,-0.012 -0.006,-0.0108 c -0.29135,-0.54842 -0.65767,-1.02621 -1.04448,-1.47931 l 1.80775,-1.33763 -0.24429,-0.33223 -0.051,-0.0701 -0.0597,-0.0614 -0.55157,-0.59335 -0.0554,-0.0591 -0.0619,-0.0494 -0.61126,-0.52713 -0.0576,-0.0516 -0.0636,-0.0429 -0.76544,-0.5293 -1.33166,1.9223 c -0.45167,-0.27182 -0.92234,-0.50042 -1.40928,-0.68727 l 0.7383,-2.17256 -0.50867,-0.17263 -0.0597,-0.0206 -0.0591,-0.0141 -0.80834,-0.2052 -0.0597,-0.0141 -0.0576,-0.008 -0.82461,-0.13735 -0.0597,-0.0125 -0.0591,-0.004 -0.74048,-0.0657 -0.19705,2.20567 c -0.23103,-0.0179 -0.46171,-0.0396 -0.69379,-0.0408 -0.31596,-0.002 -0.63082,0.0263 -0.94567,0.0554 l -0.29967,-2.17907 -0.83113,0.1151 -0.0614,0.008 -0.0532,0.0147 -0.82082,0.17642 -0.0597,0.012 -0.0554,0.0185 -0.80182,0.23994 -0.0614,0.019 -0.0554,0.0223 -0.40389,0.15798 0.81213,2.07429 c -0.4897,0.20292 -0.96119,0.44972 -1.40928,0.74265 l -1.37292,-1.82404 -0.84904,0.63841 -0.0619,0.0451 -0.0554,0.0532 -0.59716,0.55426 -0.0554,0.0511 -0.0532,0.0597 -0.7117,0.81648 1.72957,1.50591 c -0.30191,0.40549 -0.56843,0.84597 -0.79638,1.31918 l -2.03521,-0.79802 -0.16396,0.42669 -0.0331,0.0826 -0.0206,0.0842 -0.22528,0.85936 -0.0228,0.0819 -0.0125,0.0841 -0.1292,0.92558 -0.012,0.0819 -0.003,0.0819 -0.0185,0.67914 1.88538,0.0554 c -0.075,0.54024 -0.13418,1.09093 -0.11889,1.67854 v 0.008 l 0.003,0.0108 v 0.008 0.006 c 0.002,0.0466 6.9e-4,0.0914 0.002,0.13735 l -1.7996,-0.30564 -0.11074,0.65253 -0.14387,0.52278 -0.1824,0.48261 -0.35884,0.72202 1.94293,0.9625 c -0.27839,0.53167 -0.60035,1.02068 -1.02168,1.40548 -0.0874,0.0798 -0.18484,0.14964 -0.27904,0.22366 l -0.69975,-0.8105 -0.65469,-0.93156 -0.64222,0.45112 -0.36101,0.20303 -0.36318,0.15798 -0.38164,0.1254 -0.0494,0.0105 h -0.35069 l 0.14169,0.38382 0.34634,1.6248 c -0.30732,0.0403 -0.61629,0.0792 -0.92939,0.0781 -0.35937,-0.002 -0.71618,-0.0527 -1.07107,-0.10857 l 0.41855,-1.89786 -0.39793,-0.0864 -0.35665,-0.12323 -0.34907,-0.16612 -0.33657,-0.21117 -0.5559,-0.44515 -1.37074,1.71329 c -0.10453,-0.0796 -0.21286,-0.15589 -0.30998,-0.24212 l -0.0326,-0.0288 -0.0391,-0.0185 c -0.0713,-0.0325 -0.2901,-0.24203 -0.49619,-0.54396 -0.15701,-0.23002 -0.31893,-0.52802 -0.4761,-0.81864 l 2.07648,-1.02168 -0.2177,-0.44135 -0.21117,-0.56404 -0.1786,-0.64655 -0.13952,-0.77359 -2.18722,0.40009 c -0.001,-0.0461 -0.004,-0.0907 -0.004,-0.13734 v -0.0673 c 0,-0.70166 -0.0993,-1.35014 -0.22366,-1.982 l 1.62915,-0.0864 -0.0451,-0.85338 -0.004,-0.0825 -0.012,-0.0819 -0.15418,-0.92125 -0.0141,-0.0841 -0.0228,-0.0798 -0.32627,-1.12863 -2.03955,0.58685 c -0.26364,-0.46338 -0.57078,-0.88663 -0.90495,-1.27845 l 1.80557,-1.33763 -0.24374,-0.33224 -0.0494,-0.0716 -0.0597,-0.0619 -0.55156,-0.59064 -0.0554,-0.0597 -0.0619,-0.051 -0.61127,-0.52766 -0.0591,-0.0488 -0.0619,-0.0434 -0.76543,-0.53146 -1.33166,1.92283 c -0.45167,-0.27182 -0.92233,-0.50041 -1.40928,-0.68727 l 0.73884,-2.1731 -0.50704,-0.17046 -0.0597,-0.0223 -0.0613,-0.0147 -0.80833,-0.20303 -0.0597,-0.0141 -0.0576,-0.0108 -0.82462,-0.13734 -0.0614,-0.0105 -0.0576,-0.004 -0.741,-0.0679 -0.19652,2.20567 c -0.23064,-0.0178 -0.46234,-0.0374 -0.69378,-0.0386 h -0.002 c -0.31481,-0.002 -0.62992,0.0264 -0.94351,0.0554 l -0.29966,-2.18124 -0.8333,0.11672 -0.0592,0.008 -0.0537,0.0141 -0.82028,0.17644 -0.0597,0.0125 -0.0554,0.0163 -0.804532,0.24212 -0.05918,0.0185 -0.05537,0.0228 -0.40661,0.15797 0.814852,2.0743 c -0.489522,0.20279 -0.959763,0.44995 -1.407663,0.74265 l -1.374541,-1.82622 -0.849587,0.64059 -0.06134,0.0451 -0.05537,0.0532 -0.597155,0.5521 -0.05755,0.0532 -0.05102,0.0597 -0.712242,0.8143 1.729574,1.50592 c -0.30191,0.4055 -0.567898,0.84596 -0.795844,1.31916 l -2.035753,-0.79584 -0.166117,0.42452 -0.0304,0.0819 -0.0228,0.0841 -0.223662,0.86207 -0.02226,0.0798 -0.01249,0.0842 -0.129202,0.92558 -0.01249,0.0798 -0.0038,0.0819 -0.01846,0.68348 1.887549,0.0531 c -0.07519,0.54085 -0.134727,1.09239 -0.119428,1.68072 v 0.008 0.008 0.008 0.008 c 0.0023,0.0462 6.87e-4,0.0897 0.0022,0.13517 l -1.799064,-0.30563 -0.110746,0.6547 -0.141687,0.52277 -0.182946,0.48262 -0.358836,0.72201 1.942922,0.96251 c -0.278362,0.53157 -0.600404,1.01856 -1.021677,1.40331 -0.0877,0.0801 -0.186653,0.15212 -0.281205,0.22637 l -0.699754,-0.81321 -0.651986,-0.92939 -0.644384,0.45112 -0.35938,0.20141 -0.363178,0.1596 -0.381633,0.12324 -0.04886,0.0108 h -0.352866 l 0.143318,0.38326 0.346894,1.62317 c -0.307411,0.0403 -0.616061,0.0807 -0.929389,0.0798 -0.359585,-0.002 -0.716225,-0.0529 -1.071079,-0.10858 l 0.41638,-1.89569 -0.397922,-0.0879 -0.357208,-0.12105 -0.348519,-0.16829 -0.336579,-0.20901 -0.555896,-0.44732 -1.370741,1.71329 c -0.104495,-0.0798 -0.212697,-0.15576 -0.309979,-0.24212 l -0.03257,-0.0288 -0.03909,-0.019 c -0.07137,-0.0325 -0.29064,-0.24202 -0.496724,-0.54395 -0.157013,-0.23004 -0.318923,-0.52803 -0.476095,-0.81865 l 2.076468,-1.02167 -0.217147,-0.44081 -0.211718,-0.56459 -0.17806,-0.64601 -0.139516,-0.77359 -2.175273,0.39793 v -0.13138 c 0,-0.70098 -0.09736,-1.35069 -0.221489,-1.982 l 1.626976,-0.0874 -0.04506,-0.85393 -0.0038,-0.0804 -0.01465,-0.0814 -0.152005,-0.92395 -0.01628,-0.0814 -0.02226,-0.0804 -0.324635,-1.13025 -2.043353,0.58847 c -0.264043,-0.46379 -0.568149,-0.88809 -0.90279,-1.28009 l 1.80775,-1.33761 -0.244292,-0.33225 -0.05102,-0.0706 -0.05971,-0.0614 -0.552097,-0.59118 -0.05537,-0.0591 -0.05917,-0.0516 -0.613982,-0.52711 -0.057,-0.0489 -0.06406,-0.0451 -0.763274,-0.5293 -1.333281,1.92229 c -0.451557,-0.27175 -0.92288,-0.50041 -1.409829,-0.68726 l 0.738845,-2.17256 -0.507039,-0.17263 -0.05917,-0.0206 -0.05972,-0.0141 -0.808328,-0.20303 -0.05971,-0.0147 -0.05917,-0.0108 -0.825159,-0.13734 -0.05917,-0.0125 -0.05972,-0.004 -0.740471,-0.0657 -0.19706,2.20568 c -0.230946,-0.0181 -0.461479,-0.0397 -0.693787,-0.0408 -0.316005,-0.002 -0.630878,0.0263 -0.945674,0.0554 l -0.299664,-2.17907 -0.830587,0.11455 -0.05971,0.008 -0.05537,0.0141 -0.818643,0.17643 -0.05972,0.0125 -0.05755,0.0163 -0.801814,0.24212 -0.05972,0.0185 -0.05755,0.0228 -0.403891,0.15798 0.812128,2.0743 c -0.488147,0.20224 -0.958596,0.44872 -1.405484,0.74047 l -1.376714,-1.82404 -0.849043,0.64059 -0.06189,0.0466 -0.0532,0.0516 -0.597156,0.5521 -0.05755,0.0532 -0.0532,0.0591 -0.710071,0.81484 1.727948,1.50809 c -0.301126,0.40491 -0.566475,0.84452 -0.794215,1.31699 l -2.035212,-0.79583 -0.166115,0.42669 -0.03312,0.0819 -0.02062,0.0842 -0.225291,0.86207 -0.02063,0.0776 -0.01248,0.0863 -0.131375,0.92505 -0.0103,0.0804 -0.0038,0.0819 -0.01846,0.6813 1.887549,0.0554 c -0.07501,0.54026 -0.134166,1.0904 -0.118887,1.67801 v 0.008 0.008 0.0108 0.008 c 0.0023,0.0457 4.5e-5,0.0886 0.0017,0.13355 l -1.796895,-0.304 -0.112916,0.65252 -0.141687,0.52333 -0.182404,0.48207 -0.359378,0.72255 1.942922,0.96196 c -0.278379,0.53167 -0.600357,1.02069 -1.021677,1.40549 -0.08756,0.0799 -0.186808,0.14952 -0.281205,0.22366 l -0.697584,-0.8105 -0.654157,-0.93157 -0.642213,0.45167 -0.361549,0.20304 -0.362634,0.15797 -0.380008,0.12323 -0.05918,0.0125 h -0.351236 l 0.149832,0.38326 0.346891,1.621 c -0.307875,0.0405 -0.615725,0.0813 -0.929389,0.0804 -0.359587,-0.002 -0.71622,-0.0536 -1.071077,-0.10912 l 0.418551,-1.89569 -0.400092,-0.0879 -0.357208,-0.12106 -0.346351,-0.16612 -0.336576,-0.21118 -0.555897,-0.44515 -1.360426,1.69483 c -0.764797,-0.51809 -1.433924,-1.49997 -1.947267,-2.25887 l 1.821862,-1.21277 -1.936952,-2.70837 -1.64326,1.55098 c -1.070212,-0.84132 -1.778825,-1.34649 -2.568849,-1.62263 l 0.369151,-4.24143 -6.78096,-1.73989 -0.576526,4.3994 c -7.571527,-1.93988 -12.942236,-3.79793 -19.1844,-7.11374 0.346072,-0.74792 0.765961,-1.28448 1.282253,-1.67637 0.584352,-0.44356 1.255259,-0.8035 1.854979,-1.40332 l 0.279034,-0.27903 -3.955877,-2.04552 -2.663308,3.71973 -2.671453,-1.71547 3.092175,-3.45698 -3.553611,-2.46028 -2.814769,3.96403 -2.139985,-1.82186 -3.639928,4.48082 2.57265,2.16713 1.756177,-2.32673 2.214357,1.46683 -1.397341,2.07429 2.929857,1.96952 1.528715,-2.17689 2.014581,1.30125 -1.134593,2.18287 2.816941,1.65575 1.32134,-2.28982 2.168756,1.06511 -0.816472,2.34899 2.960799,1.00322 0.771415,-2.21544 1.998297,0.78553 -0.58467,2.37993 2.732796,0.8067 0.492924,2.08624 c -0.659846,0.18215 -1.347174,0.25549 -2.054211,0.2812 l -0.336578,-2.47221 -2.950486,0.26274 0.367521,2.51728 c -0.76336,0.18361 -1.469909,0.17008 -2.226299,0.18458 l -0.180233,-2.65082 -3.075887,0.0701 0.168288,2.58079 c -0.57621,0.0896 -1.327628,0.0731 -2.687738,-0.006 l 0.02877,-2.80716 -2.995544,-0.31162 -0.24049,2.73497 c -0.884963,-0.11063 -1.76537,-0.24268 -2.642681,-0.42886 l 0.268721,-2.72248 -3.346238,-0.57653 -0.305634,2.6074 -2.6980528,-0.75513 -0.6074686,3.16003 0.2502616,0.0738 c 0.8979325,0.27039 1.8178384,0.50987 2.7496256,0.73233 l -1.3463123,5.24845 5.7163975,-0.0105 -0.39195,-0.47175 c -0.0029,-0.003 -0.06375,-0.10495 -0.118888,-0.24429 -0.05514,-0.13937 -0.1183,-0.32462 -0.180776,-0.53581 -0.124949,-0.42239 -0.251774,-0.95191 -0.354492,-1.47497 -0.102719,-0.52308 -0.180609,-1.04054 -0.205204,-1.42991 -0.01176,-0.18604 -0.0077,-0.33753 0.0038,-0.44136 1.019056,0.17479 2.056947,0.3224 3.118774,0.43701 0.0043,0.009 0.0033,0.007 0.0081,0.0206 0.0312,0.0879 0.06825,0.24717 0.0988,0.43918 0.0611,0.38401 0.108455,0.91148 0.155803,1.44023 0.04735,0.52873 0.09365,1.05869 0.161775,1.47117 0.03406,0.20623 0.07095,0.38016 0.127573,0.52929 0.02831,0.0746 0.06029,0.14508 0.118889,0.21552 0.05861,0.0705 0.172618,0.1527 0.309977,0.14984 l 3.732215,-0.0782 -0.332778,-0.4495 c -0.523494,-0.70907 -0.709195,-1.60844 -0.7345,-2.32835 -0.01265,-0.35996 0.01571,-0.67554 0.05374,-0.88651 0.01181,-0.0656 0.02298,-0.0958 0.03474,-0.13734 7.606437,0.36165 15.744983,-0.97529 26.004447,-4.35217 l 2.258872,0.34255 c 0.976616,0.43946 2.522693,1.52414 3.054717,2.44779 0.601758,1.04471 1.185782,2.07281 2.066155,2.8544 1.725131,1.53154 3.970435,2.26813 6.184349,2.27516 2.214027,0.007 4.443153,-0.71699 6.12246,-2.25074 1.681563,-1.53581 2.726751,-3.89723 2.583507,-6.78095 v -0.008 c -0.04829,-2.17048 0.67289,-3.59885 1.764321,-4.59212 1.092573,-0.9943 2.630319,-1.52118 4.197994,-1.51405 1.567429,0.007 3.129761,0.55115 4.263685,1.5716 1.105823,0.99516 1.847457,2.42649 1.88972,4.52643 v 0.0636 c -0.01791,2.90657 1.123144,5.25889 2.851685,6.79344 1.725152,1.53156 3.968308,2.26868 6.182178,2.2757 2.213977,0.007 4.443141,-0.7175 6.12246,-2.25127 1.681578,-1.5358 2.726211,-3.89726 2.582965,-6.78096 v -0.008 c -0.04827,-2.17045 0.675567,-3.59613 1.767033,-4.58941 1.092614,-0.99432 2.628144,-1.52389 4.195824,-1.51677 1.56744,0.007 3.12975,0.55172 4.26369,1.57214 1.13202,1.01874 1.8977,2.47933 1.90601,4.66161 -0.0179,2.90655 1.12147,5.25886 2.85005,6.79345 1.72515,1.53156 3.96776,2.26813 6.18163,2.27516 2.21403,0.007 4.44533,-0.71698 6.12464,-2.25074 1.68154,-1.53578 2.72674,-3.89724 2.5835,-6.78095 v -0.008 c -0.0483,-2.17045 0.67292,-3.59668 1.76433,-4.58994 1.09263,-0.99432 2.6282,-1.52337 4.19582,-1.51623 1.56743,0.007 3.13195,0.55116 4.26586,1.5716 0.60434,0.54385 1.24904,1.0972 1.35608,1.83436 l 0.002,0.0228 0.008,0.0223 c 0.65875,2.06369 1.65987,3.05802 2.78438,3.49444 1.12451,0.43641 2.32087,0.33985 3.40377,0.38543 h 0.006 0.006 c 0.96223,-0.002 1.61891,-0.31495 2.24856,-0.35069 10.26033,3.37717 18.39747,4.7136 26.00444,4.35162 0.0118,0.0415 0.0235,0.0724 0.0353,0.13789 0.038,0.21091 0.0658,0.52606 0.0532,0.88597 -0.0253,0.71981 -0.21318,1.61983 -0.73668,2.3289 l -0.33006,0.44733 3.73221,0.0782 c 0.13735,0.003 0.25141,-0.0793 0.30998,-0.14984 0.0586,-0.0705 0.0905,-0.13878 0.11889,-0.21335 0.0566,-0.14912 0.093,-0.32524 0.12703,-0.53146 0.0681,-0.41244 0.11497,-0.94035 0.16232,-1.469 0.0474,-0.52866 0.0948,-1.05685 0.1558,-1.44077 0.0306,-0.19197 0.0671,-0.3491 0.0982,-0.43701 0.004,-0.0132 0.004,-0.0105 0.008,-0.0201 1.06182,-0.11462 2.0997,-0.2644 3.11877,-0.43918 0.0114,0.10379 0.0156,0.25477 0.004,0.4408 -0.0247,0.38938 -0.10242,0.90737 -0.20519,1.43046 -0.10274,0.52307 -0.23167,1.05474 -0.35667,1.47714 -0.0625,0.2112 -0.12344,0.39426 -0.17861,0.53364 -0.0551,0.13937 -0.11591,0.24071 -0.11889,0.24429 l -0.39412,0.47175 5.71857,0.0108 -1.34631,-5.24844 c 0.93183,-0.22254 1.8518,-0.4598 2.74963,-0.73016 l 0.25025,-0.0761 -0.60747,-3.16003 -2.69805,0.75513 -0.30563,-2.60794 -3.34624,0.5787 0.26872,2.72085 c -0.87673,0.18613 -1.75843,0.31819 -2.64268,0.42887 l -0.24049,-2.73497 -2.99554,0.3116 0.0288,2.8088 c -1.36186,0.0793 -2.1112,0.0934 -2.68774,0.004 l 0.16828,-2.58135 -3.07588,-0.0694 -0.18241,2.65083 c -0.75626,-0.0144 -1.46282,-5.3e-4 -2.22629,-0.18458 l 0.36968,-2.51782 -2.95048,-0.2622 -0.33875,2.47221 c -0.70622,-0.0257 -1.39287,-0.0992 -2.05204,-0.2812 l 0.49075,-2.08678 2.73497,-0.80616 -0.58466,-2.37993 1.99828,-0.78608 0.77143,2.21599 2.96079,-1.00322 -0.81647,-2.34736 2.16658,-1.06674 1.32351,2.28983 2.81694,-1.65576 -1.13458,-2.18341 2.01458,-1.30071 1.52654,2.17689 2.93202,-1.96951 -1.39734,-2.07267 2.21436,-1.46901 1.75618,2.32674 2.57265,-2.16659 -3.63993,-4.48082 -2.13999,1.82186 z m -28.40881,15.37565 0.18892,1.69048 -1.6829,0.3697 -0.2318,-1.73175 z m -103.654068,0.006 1.725777,0.32789 -0.233976,1.73174 -1.682347,-0.36915 z m 115.987468,1.19593 0.58468,2.01676 -2.34519,-0.56187 -0.0863,0.33224 -0.13952,-1.21494 z m -128.323049,0.004 1.986353,0.57217 -0.139518,1.21657 -0.08631,-0.33224 -2.346818,0.56241 z m 121.562179,1.99449 -0.0716,0.26655 c -0.038,-0.0875 -0.0692,-0.16547 -0.0967,-0.23779 0.0547,-0.009 0.10971,-0.0193 0.16828,-0.0288 z m -114.799134,0.008 c 0.05888,0.009 0.113303,0.0171 0.168289,0.0266 -0.02704,0.0715 -0.05903,0.14934 -0.09663,0.23615 z m 119.423834,0.88868 -0.24593,0.94784 c -0.63027,-0.0327 -1.18545,-0.24812 -1.75672,-0.48207 z m -124.050696,0.006 2.00264,0.46579 c -0.571423,0.23405 -1.125897,0.44932 -1.756178,0.48205 z"
       id="path826-0"
       inkscape:connector-curvature="0" />
  </g>
</svg>
